# xmcd
#
# Track frame offsets:
#	150
#	21909
#	40758
#	58982
#	77831
#	95475
#	113906
#	132312
#	150061
#	171153
#
# Disc length: 2547 seconds
#
# Revision: 0
# Processed by: cddbd v1.5.2PL0 Copyright (c) Steve Scherf et al.
# Submitted via: VUPlayer 2.49
#
DISCID=7909f10a
DTITLE=Nelson King - Nelson King
DYEAR=2005
DGENRE=Blues
TTITLE0=I Work Alone
TTITLE1=I'm Trouble
TTITLE2=Easy
TTITLE3=What If I?
TTITLE4=Knock All Night
TTITLE5=I'll Fall For You
TTITLE6=Any Other Way
TTITLE7=Downtown Shuffle
TTITLE8=Falling From View
TTITLE9=Are You Ready?
EXTD=
EXTT0=
EXTT1=
EXTT2=
EXTT3=
EXTT4=
EXTT5=
EXTT6=
EXTT7=
EXTT8=
EXTT9=
PLAYORDER=
